<svg version="1.2" xmlns="http://www.w3.org/2000/svg" viewBox="0 0 920 1040" width="920" height="1040">
	<title>bg-1-svg</title>
	<style>
		.s0 { opacity: .1;fill: #856437 } 
	</style>
	<path id="Path_21129" fill-rule="evenodd" class="s0" d="m0.3 184.1v-0.9q0-0.4 0.1-0.7 0.1-0.3 0.4-0.5 0.2-0.3 0.5-0.4 0.3-0.1 0.7-0.1h0.4l25.4-35.4v-1.9q0-0.7 0.2-1.3 0.3-0.7 0.8-1.1 0.4-0.5 1.1-0.8 0.6-0.2 1.3-0.2h7.9l40.1-9.2q0.3-0.1 0.6 0 0.3 0 0.5 0.1 0.3 0.2 0.5 0.4 0.2 0.2 0.3 0.4l135.1-30.7q0-0.2 0.1-0.4 0.1-0.2 0.3-0.4 0.1-0.2 0.3-0.3 0.2-0.2 0.5-0.2l19.9-4.7q0.3-0.1 0.5-0.1 0.3 0.1 0.5 0.2 0.3 0.1 0.5 0.3 0.1 0.2 0.2 0.4l177.7-40.3q0.1-0.3 0.2-0.5 0-0.2 0.2-0.4 0.2-0.2 0.4-0.3 0.2-0.1 0.4-0.2l20-4.7q0.2 0 0.5 0 0.2 0 0.5 0.1 0.2 0.2 0.4 0.3 0.2 0.2 0.3 0.5l177.6-40.4q-0.2-0.7 0-1.3 0.1-0.7 0.5-1.3 0.4-0.6 1-1 0.5-0.3 1.2-0.5l25.3-5.8q1.1-0.2 2.3-0.1 1.1 0 2.2 0.4 1.1 0.4 2 1 0.9 0.7 1.6 1.6l24.6 30.4q0.4 0.5 0.7 1.2 0.2 0.6 0.2 1.3 0.1 0.7-0.2 1.4-0.2 0.7-0.6 1.2l49.1 40.4q0.2-0.1 0.4-0.1 0.2-0.1 0.4-0.1 0.3 0 0.5 0.1 0.2 0.1 0.4 0.3l15.9 12.9q0.2 0.1 0.4 0.4 0.1 0.2 0.1 0.4 0.1 0.3 0.1 0.5-0.1 0.3-0.2 0.5l56.7 46.8q0.2-0.1 0.5-0.1 0.2-0.1 0.4-0.1 0.3 0.1 0.5 0.1 0.2 0.1 0.4 0.3l10.4 8.4 30.8 0.1v2l-0.1 14.4v2 8.3l6.3 5.2h2v-1.3l0.1-5.1v-4.6-5-4.7l11 0.1v4.6l-0.1 4.6v5.1 4.6 1.7h2.8v-1.3l0.1-5v-4.7-5-4.6h11v4.6l-0.1 4.6v5.1 4.6 1.7l2.8 0.1v-1.3l0.1-5.1v-4.6-5.1-4.6h11v4.6l-0.1 4.7v5 4.7 1.7h2.8v-1.3l0.1-5.1v-4.6-5-4.7l11 0.1v4.6l-0.1 4.6v5.1 4.6 1.7h2.8v-1.3l0.1-5v-4.7-5-4.6h11v4.6l-0.1 4.6v5.1 4.6 5.1 4.6 5.1 4.6 5.1l-0.1 4.6v5 4.7 5 4.6 5.1 4.6h-11v-4.6-4.7-5-4.6l0.1-5.1v-4.6-5.1-4.6-5.1-4.6-0.6h-2.8v0.2 5 4.7 5 4.7l-0.1 5v4.6 5.1 4.6 5.1 4.6h-11v-4.7-4.6-5-4.7l0.1-5v-4.7-5-4.6-5.1-4.6-0.7h-2.8v0.2 5.1 4.6 5.1l-0.1 4.6v5.1 4.6 5.1 4.6 5 4.7l-11-0.1v-4.6-4.6-5.1-4.6l0.1-5.1v-4.6-5-4.7-5-4.6-0.7h-2.8v0.2 5.1 4.6 5.1 4.6l-0.1 5v4.7 5 4.6 5.1 4.6h-11v-4.6-4.7-5l0.1-4.6v-5.1-4.6-5.1-4.6-5.1-4.6-0.6h-2.8v0.2 5 4.7 5l-0.1 4.6v5.1 4.6 5.1 4.6 5.1 4.6h-11v-4.7-4.6-5-4.7l0.1-5v-4.7-5-4.6-5.1-4.6-0.7l-159.6-0.3-0.1 37.7 79.1 0.2v2l-0.1 14.3v2.1 14.3 5.5 3.7h-32.2l7.2 6.3v6.3 3.5l-0.1 38.2 34 0.1v2 14.3 2.1 14.3l-0.1 6.2-7.4-0.1-15.8 16.2v22l23.1 0.1v2 14.3 2.1 14.3 6.1h-6.3l-16.9 17.5-0.2 53h-5.1l0.1-70.5h5.2v12.4l12.1-12.4h-21.3l-0.1 11.2h-1.6l-0.1 50.8h1.6l-0.1 26.2h-1.6l-0.1 50.9h1.6l-0.1 26.2h-1.6l-0.1 50.8 1.6 0.1v26.2h-1.7l-0.1 50.8h1.6v26.3h-1.7l-0.1 50.8h1.6v4.7l76.7 99v0.1 19.9l-0.2 76.5 30.9 0.1 26.5 10.5-0.1 18.9-90.4-0.2h-2.6-12l-2.5-0.1h-22.1l0.1-18.9 22-8.6 0.1-30.7-68.3-45.7-104.5 69.2v5h31l26.4 10.6v18.9l-129.6-0.4v-18.9l26.6-10.3h30.9l0.2-76.5v-19.9l77.2-98.6v-4.6h1.6l0.1-50.8h-1.6l0.1-26.3h1.6l0.1-50.8h-1.6v-26.3h1.7l0.1-50.8h-1.6v-26.3l1.7 0.1 0.1-50.9h-1.6v-26.2h1.7l0.1-50.8h-1.6v-11.4l-21.3-0.1 12.1 12.6v-12.5h5.2l-0.2 70.4h-5.1l0.1-52.9-17-17.6h-6.1v-6.2l0.1-30.7v-2l23.1 0.1 0.1-21.9-15.8-16.4h-7.3v-6.2l0.1-30.6v-2.1l33.9 0.1 0.1-38.2v-3.5-6.3l7.3-6.3h-21.6v-3.8h-5.9q-3.3 0-6.4-0.9-3.1-0.9-5.9-2.6-2.7-1.6-4.9-4-2.2-2.4-3.7-5.3c-2.2-4.2-3.9-8.7-5.1-13.4-1.1-4.6-1.8-9.4-1.9-14.2-0.1-4.8 0.4-9.6 1.4-14.3 1-4.7 2.5-9.2 4.5-13.6l-252.1-0.6q0.9 1 1.5 2.3 0.6 1.3 0.8 2.7 0.2 1.4-0.1 2.8-0.3 1.3-1 2.6v13.9h2.1v19.4l-2.3 0.9-5.3 2-18.8 7.3-2.3 0.8-2.2 0.9v6c2.3 0.1 4.2 0.9 4.1 2.8q0 0.4-0.2 0.8-0.2 0.3-0.5 0.6-0.2 0.3-0.6 0.5-0.4 0.2-0.8 0.2c-1.6-0.1-4.4-1.5-6.2-1-1.4 0.4-2.5 1.2-3.3 2.4-0.8 1.1-1.1 2.6-0.9 3.9 0.2 1.4 0.8 2.7 1.9 3.6 1 0.9 2.4 1.4 3.8 1.4 2.2 0 3.4-0.6 4.4-2.5 0.7-1.5 2.1-4.3 3.3-4.5l1.4 0.3c2 3 0.3 6.9-1.9 9.2q-0.8 0.7-1.7 1.2-0.8 0.5-1.8 0.9-0.9 0.3-1.9 0.5-1 0.2-2 0.1c-1.6 0-3.1-0.4-4.4-1.1-1.4-0.7-2.6-1.7-3.5-2.9-0.9-1.2-1.6-2.6-1.9-4.1-0.3-1.5-0.2-3.1 0.1-4.6q0.4-1.2 1-2.4 0.6-1.2 1.6-2.1 0.9-1 2-1.6 1.1-0.7 2.4-1.1h0.2v-6.4l-10.2-3.8-8.3-3.1-14.1-5.3 0.1-19.4h1.1 1.4v-13.2c-0.9-1.3-1.4-2.9-1.5-4.5-0.1-1.6 0.3-3.3 1.1-4.7 0.7-1.4 1.9-2.6 3.3-3.5 1.4-0.8 3-1.2 4.6-1.2q0.7 0 1.4 0.1 0.7 0.1 1.3 0.3 0.7 0.3 1.3 0.6 0.6 0.3 1.2 0.7l11.6 0.1-7.3-7.4-326.2-0.8v-2.2-0.2-0.1l0.1-0.2zm701.4 129.3l-27.4-28.4 44.9 0.1v3.5 2.5l-0.1 12.7v2.5 0.1l-6.8 7.1-0.1-0.1-0.8 1-1-1-3.5 3.6-3.4-3.6-1 0.9h0.1c0 0-0.9-0.9-0.9-0.9zm-2.4 11.9l0.7 0.7-0.9 0.9-12.3 12.7h-15l0.1-14.3zm2.8 157.2l0.9 1 3.5-3.6 3.5 3.6 0.9-0.9 0.9 0.9 6.8 7.1v10.3 2.6 9.3l-45.9-0.1 28.5-29.2zm-0.2 77l1 1 3.4-3.6 3.5 3.6 0.9-0.9 0.9 0.9 6.9 7.1-0.1 9.1v2.5 10.6l-45.9-0.1 28.5-29.3zm-1 62.1l-27.4-28.4 44.9 0.1v1.1 12.6 2.6 5l-6.9 7-0.9 0.9-1-0.9-3.4 3.6-3.5-3.6-0.9 0.9c0 0-0.9-0.9-0.9-0.9zm0.8 15l1 0.9 3.5-3.5 3.4 3.6 1-0.9 0.8 0.9 6.9 7.1-0.1 7.9v2.5 11.8l-45.8-0.1 28.5-29.3zm-1.1 62.1l-27.4-28.4 44.9 0.1v12.5 2.6 6.2l-6.9 7-0.9 0.9-0.9-0.9-3.5 3.6-3.4-3.6-1 0.9-0.9-0.9zm0.9 15l0.9 0.9 3.5-3.5 3.4 3.6 1-1 0.9 1 6.8 7v6.7 2.6 12.6 0.4l-45.9-0.1 28.5-29.3zm-1 62.1l-27.4-28.4 44.9 0.1-0.1 11.3v2.5 7.5l-6.9 7-0.8 0.9-1-0.9-3.4 3.6-3.5-3.6-1 0.9h0.1c0 0-0.9-0.9-0.9-0.9zm0.8 15l1 0.9 3.4-3.5 3.5 3.6 0.9-1 0.9 1 6.8 7v5.5 2.6 12.6 1.6l-45.9-0.1 28.5-29.3zm75.1 202.7h12.1v12.7l-12.1-0.1zm12.1-17.7h-12v-12.6h12zm-12-27.8h12.1v12.6h-12.1zm12 36.3l-8.9-5.9h8.9zm-11.9-51.1h12v12.3l-12-0.1zm-74.2-604.8l1 0.9 2.5-2.5-0.1 12.8h-14.3l10-10.3zm-1 62.1l-27.4-28.4 44.9 0.1v2.2 2.5 12.7 2.5 1.4l-6.9 7-0.9 0.9-1-0.9-3.4 3.5-3.5-3.5-0.9 0.9-0.9-0.9zm-2.4 11.9l0.8 0.7-0.9 0.9-12.4 12.7-14.9-0.1v-14.3zm34.3 37.9h-12.1v-1h12.1zm0.2-100.6h-6.6l-2.9-3h9.5zm-14.5-14.4v6.1l-4.4-4.5-0.8-0.9 0.7-0.7zm-16.8 80.2l1 0.9 2.5-2.5-0.1 12.8h-14.3l10-10.3zm39.5 18.8l-0.1 7.9-5.7-6v-7.4h5.8zm-8.3-7.5h-6.6l-4.2-4.3 10.8 0.1zm-14.6-14.4v6.1l-4.3-4.5-0.8-0.7-0.1-0.2 0.7-0.7zm5.1 16.4l6.1 6.3h-8.7v-6.3zm-2.5-2.1v-0.5l0.6 0.5zm12 11.9v4.5h-12.1v-5.5l11.2 0.1zm2.5 2.6l1.8 1.9h-1.8zm-28.2 1.8v-14.3h11.1v6.3 2.6 5.4zm0-16.3v-12.7l2.4 2.4 1-0.9 0.9 0.9 6.8 7.1v3.2zm25.7 2.1v4.8l-4.7-4.8zm-61.8 5.5v-5.7l13 0.1-13 13.3zm17.8-5.6l16.3 0.1v14.3l-30.2-0.1zm25.1-25.7l4.4-4.5-0.1 6.2v2.6 3.1h-6l-1.8-1.9 3.6-3.7-1-0.9zm6.9-7.1l3.7-3.8 8.4 0.1v12.6h-12.1zm0-6.3l0.1-12.6h12v1.5l-10.8 11.1zm0-15.2v-2.2h12.1l-0.1 2.2zm2.7-22.7l7.2 7.6h-9.8v-7.6zm-2.5-2v-0.6l0.5 0.6zm0 16.3v-4.2h12v4.3zm14.6-1.9l1.9 1.9h-1.9zm-28.2 1.8v-14.3l11.1 0.1v7.5 2.6 4.2zm0-16.4v-12.7l2.4 2.5 1-1 0.8 1 0.1-0.1 6.8 7.1v0.2 3zm25.7 2.1l-0.1 4.8-4.6-4.8zm2.6 0h5.8l-0.1 5.5v7.9l-5.7-6zm3.4 20.5l-3.5 3.6v-3.6zm2.3 11.2l-0.1 27h-5.8l0.1-29.6 5.8-5.9zm-8.4 27l-12-0.1v-3.1l12 0.1zm0 2v7.5h-12.1l0.1-7.5zm2.5 0h5.8v14.3h-5.8zm-64.2-60.9l12.9 0.1-13 13.3v-7.8zm17.9 0.1h16.2v14.3h-30.2zm25.2-25.8l4.3-4.5v7.5 2.6 1.8h-6.1l-1.8-1.9 3.6-3.7-0.9-0.9zm6.9-7.1l2.4-2.5 9.6 0.1v12.6h-12.1zm0.1-5.1v-12.6h12v0.2l-12 12.4zm14.6-18.6h3.5l-3.5 3.6zm-2.6 11.3v7.3h-7.1zm-0.1 27l-12-0.1v-1.8h12zm0 2.1v8.7h-12l-0.1-0.1 0.1-8.7zm2.5 0h5.8v14.4l-5.8-0.1zm-2.7 48.2v6.1h-6zm13.5 29h5.7v14.3h-5.8zm-7.6 36.8l-3.4 3.6v-3.6zm-6 6.2l-9.7 9.9h-2.4v-12.6h12.1zm-19 24.6l4.3-4.5v5.1 2.5 12.4l-4.3-4.5-0.3-0.3-0.6-0.6 0.9-0.9-3.5-3.7 3.6-3.7-1-0.9zm18.9 15.8l-12.1-0.1 0.1-12.6h12zm0 2.6v12.3l-11.9-12.3zm-4.6 12.6l-7.5-0.1v-7.7zm12.9 0.3v8l-5.8-6 0.2-55.4 5.8-5.9-0.1 8.6zm-8.2-50.8v4.9h-4.8zm-0.1 55.1v7.2h-12.1l0.1-9.3h9.9zm2.6 2.7l4.4 4.5h-4.4zm3.4 8.1l-3.4 3.6v-3.6zm-6.1 6.2l-8.5 8.7h-3.6l0.1-12.6h12zm-19 24.5l4.4-4.4v3.8 2.6l-0.1 12.6v1l-5.2-5.4 1-0.9-3.6-3.7 3.6-3.7-1-1zm6.9 18.2v-1.1l12 0.1v12.6h-0.8zm6.2 11.5h-6.3v-6.5zm5.8-15.1l-12-0.1v-12.6h12zm8.3 16.8v7.9l-5.7-6 0.1-55.3 5.8-6v8.6zm-40.3-33.8l-27.4-28.4 44.9 0.1v2.3l-0.1 12.7v2.5 3.8l-6.8 7-0.9 0.9-1-0.9-3.4 3.5-3.5-3.5-0.9 0.9-0.9-0.9zm32-17v3.7h-3.6zm-0.1 55.1v7.2h-12.1l0.1-10.6 8.8 0.1zm2.5 2.6l4.4 4.6h-4.4zm3.4 8.1l-3.4 3.5v-3.6zm-6.1 6.2l-7.3 7.5h-4.7v-12.6h12zm-19 24.6v-0.1l4.4-4.4v2.6 2.5l-0.1 12.7v2.2l-4.3-4.5-0.3-0.3-0.6-0.6 1-0.9-3.6-3.7 3.6-3.7-0.9-0.9zm6.8 18.1v-2.3l12.1 0.1-0.1 12.6h-2zm5.1 10.3h-5.1v-5.3zm6.9-15.1l-12-0.1v-12.6h12zm8.3 18v7.9l-5.8-6 0.2-55.3 5.8-6v8.6zm-20.3-43.5v-2.3h2.3zm12-7.4v2.5h-2.4zm-0.1 55.2v7.2l-12.1-0.1 0.1-11.7h7.6zm2.5 2.6l4.4 4.6h-4.4zm3.5 8.1l-3.5 3.6v-3.6zm-6.1 6.2l-6.1 6.2h-5.9v-12.5l12 0.1zm-19 24.5l4.4-4.5v1.4 2.5 12.7 2.5l-0.1 0.9-4.3-4.5-0.3-0.2-0.6-0.7 1-0.9-3.6-3.7 3.6-3.7-0.9-0.9zm6.8 18.2v-3.6l12.1 0.1-0.1 12.6h-3.2zm3.9 9.1h-3.9v-4.1zm8.1-15.1l-12-0.1v-12.6h12.1zm8.2 19.2v8l-5.7-6 0.1-55.4 5.8-5.9v8.5zm-20.3-43.4v-3.6h3.5zm12-7.3v1.2h-1.2zm-0.1 50.1l-0.8-0.8 0.8 0.1zm0 5l-0.1 6.8h-12v-12.7l6.4 0.1zm2.6 2.6l4.4 4.6h-4.4zm3.4 8.1l-3.5 3.5v-3.6zm-6 6.2l-4.9 5.1h-7.1v-11.3h12zm-19 24.5l4.4-4.4v0.1 2.6l-0.1 12.6v2.6 2.1l-4.3-4.5-0.6-0.6-0.3-0.3 1-0.9-3.6-3.7 3.6-3.7-1-0.9zm6.9 18.1v-4.7h12v12.6h-4.4zm2.7 7.9h-2.7v-2.8zm9.3-15.2h-12v-12.6h12zm8.3 20.4v7.9l-5.8-5.9 0.2-55.4 5.8-6-0.1 8.6zm-20.2-43.5v-4.8l4.6 0.1zm12.1-7.4zm-0.1 50.1l-2-2h2zm0 5.1l-0.1 5.6-12-0.1v-12.6h5.2zm-32.1 39l-27.4-28.4 44.9 0.1v10.1 2.5 8.7l-6.9 7-0.9 0.9-0.9-0.9-3.5 3.5-3.4-3.5-1 0.9c0 0-0.9-0.9-0.9-0.9zm0.9 15l0.9 0.9 3.5-3.5 3.4 3.6 1-1 0.9 1 6.8 7v4.3 2.5 12.6l-0.1 2.6v0.3l-45.8-0.1 28.5-29.3zm31.1 27.5h-12.1l0.1-12.7 4 0.1 8 8.2zm6.2-70.7l-3.5 3.6v-3.6zm-6 6.2l-3.8 3.8h-8.3v-10h12.1zm-19 24.5l4.3-4.5v1.5 12.6 2.6 3.3l-4.4-4.4-0.2-0.3-0.6-0.7 0.9-0.9-3.6-3.7 3.6-3.7-0.9-0.9zm104.3 58l-8.2-0.1-74.8-0.1 0.1-11.4h5.7v11.2h6.8l0.1-26.3h-1.6l0.1-50.8h1.6v-13.1zm-95.9-33.2l-1.5 0.1v-1.7zm18.8 6.5l-0.1 7.9-5.7-5.9 0.1-55.4 5.8-5.9v8.5zm-8.3-21.6l-12-0.1v-12.6l12 0.1zm-11.9-21.8v-6.1l5.8 0.1zm12 42.7l-3.2-3.2h3.2zm2.7-69.5l4.4 4.6h-4.4zm-2.6 33.3h-12.1v-1.6l10.8-11h1.3zm6.9 48.4h-4.5v-4.6zm-7 0l-12-0.1v-0.2h12zm0 3.5v8.8h-12v-8.8zm-61.9 11.2l0.1-11.4 47.2 0.1v8.9 2.5zm0.1-77.1l0.1-8.7 27.2 28.2 0.9 0.9-1 0.9 3.6 3.7-3.6 3.7 0.9 0.9-0.9 0.9-27.3 28.1v-7.8zm50.5-300.9v-1.2h1.1zm-19.8-67.4l-27.4-28.4 44.9 0.1v1 2.6 12.6 2.5l-0.1 2.6-6.8 7-0.9 0.9-1-0.9-3.4 3.5-3.5-3.5-0.9 0.9c0 0-0.9-0.9-0.9-0.9zm-34.8-50.9l-5.6-0.1v-14.3h5.6zm5.3-43.1v-8.7l27.2 28.2 0.9 0.9-1 0.9 3.6 3.7-1.8 1.9-29-0.1zm50-88.4l12 0.1v3.4h-12zm20.3 38.2h-5.8l0.1-29.6 5.8-5.9zm37.1 16.4h-32v-14.4l32 0.1zm0 16.4l-30.4-0.1 0.1-8.9h-1.7v-5.4l32 0.1zm-21.1 17.2v-11.1h10.8zm-5.2 27h-5.7v-27h1.7v-11.2h4.1zm26.2 16.4h-21.1v-14.3h21.1zm0 16.4l-21.1-0.1v-14.3l21.1 0.1zm-30.3-0.1v-8.9h-1.6v-5.5l5.7 0.1v14.3zm-27.3 29.7l4.8-4.9h7.2v12.7l-12-0.1zm-0.2 77.1l6-6.1h6v12.6h-12zm-0.2 77.1l7.1-7.4h4.9v12.6h-12zm-0.2 77.1l8.3-8.6h3.7v12.7l-12-0.1zm-0.2 77.1l9.5-9.8h2.5v12.6h-12zm-0.3 102.4l0.1-6h12v12.6h-5.6zm89.2 59.7l-0.2 65-18.2-12.2 0.1-52.8zm-0.2 76.5h-18.2v-17.5l18.2 12.2zm-32.8 0.6v-1.7h12v1h-10.1zm0.1-28l12 8v0.5h-12.1zm-2.5-7.9l-62-41.5 62.1 0.1zm-172.6-41.8l98.1 0.3-98.2 65zm62.4-110.2v13.3h1.6l-0.1 50.8h-1.7v26.3l-62.2-0.1-8.2-0.1zm7-63.7v-8.8l27.2 28.2 0.9 1-0.9 0.9 3.5 3.7-3.6 3.7 1 0.9-0.9 0.9-27.4 28.1 0.1-7.8zm0.2-77.1v-8.7l27.2 28.2 0.9 0.9-1 0.9 3.6 3.7-3.6 3.7 1 0.9-0.9 0.9-27.4 28.1v-7.8zm0.2-77v-8.8l27.3 28.2 0.8 0.9-0.9 0.9 3.6 3.7-3.6 3.7 0.9 0.9-0.9 1-27.3 28v-7.7zm0.2-77.1v-8.8l27.2 28.2 0.9 0.9-1 1 3.6 3.7-3.6 3.6 1 1-0.9 0.9-27.4 28 0.1-7.7zm0.2-77.1v-8.7l27.2 28.1 0.9 1-1 0.9 3.6 3.7-3.6 3.7 0.9 0.9-0.8 0.9-27.4 28.1v-7.8zm-6.7-26.3v8.7h-4v-14.3h5.6v5.6zm-30.3 8.6l0.1-14.3 21.1 0.1v14.3zm21.1-30.6v14.3l-21.1-0.1v-14.3zm5.2-2l0.1-38.2h4l-0.1 11.4h1.7l-0.1 26.8zm-16-38.3l10.9 0.1v11.2zm-10.2-6.1l0.1-14.4 31.9 0.1v5.6h-1.7v8.7zm32-30.6l-0.1 14.3h-31.9l0.1-14.4zm5.1-2l0.1-35.5 27.2 28.1 0.9 1-0.9 0.9 3.5 3.7-1.8 1.9zm128.3-179.9q-0.1 0.2-0.2 0.5 0 0.2 0 0.5 0.1 0.3 0.2 0.5 0.1 0.2 0.3 0.4l5.8 4.7-44-0.1v-15.8-1.6h6.8v-5.8l-6.8-3.6-37.2-0.1-6.8 3.6v5.8h6.8v1.6l-0.1 15.8-28.7-0.1v2.1l-0.1 29.8h-2.6l-37-154.7 14.7 13.6q0.5 0.4 1.1 0.7 0.6 0.3 1.2 0.3 0.7 0.1 1.3 0 0.7-0.1 1.3-0.4l49.2 40.6q-0.1 0.2-0.2 0.5 0 0.2 0 0.5 0.1 0.3 0.2 0.5 0.2 0.2 0.4 0.4l15.9 12.9q0.2 0.1 0.4 0.2 0.2 0.1 0.5 0.1 0.2 0 0.4 0 0.3-0.1 0.5-0.2zm-182.3-130.1q0.3 0.5 0.7 0.9 0.4 0.4 0.9 0.6 0.6 0.3 1.2 0.3 0.5 0.1 1.1 0l25.3-5.8 1.1 4.7-26.2 9.8q-0.5 0.2-1 0.6-0.5 0.4-0.8 1-0.3 0.5-0.4 1.1-0.1 0.6 0 1.2l-129.8 48.9q-0.1-0.2-0.3-0.3-0.2-0.2-0.5-0.2-0.2-0.1-0.5-0.1-0.2 0-0.4 0.1l-19.2 7.2q-0.3 0.1-0.5 0.3-0.1 0.2-0.3 0.4-0.1 0.2-0.2 0.4 0 0.3 0 0.5l-115.5 43.6q-0.2-0.3-0.4-0.4-0.2-0.2-0.5-0.3-0.2-0.1-0.5-0.1-0.3 0-0.6 0.1l-36.2 13.7-251.4-0.6 17.4-4q0.3 0 0.5-0.2 0.3-0.2 0.5-0.4 0.2-0.3 0.2-0.6 0.1-0.3 0.1-0.6l135.1-30.7q0.1 0.3 0.3 0.5 0.1 0.1 0.4 0.3 0.2 0.1 0.5 0.1 0.2 0 0.5 0l19.9-4.8q0.3 0 0.5-0.1 0.2-0.1 0.3-0.3 0.2-0.2 0.3-0.4 0-0.2 0.1-0.4l177.7-40.4q0.1 0.2 0.3 0.4 0.2 0.2 0.4 0.3 0.2 0.1 0.5 0.2 0.2 0 0.5-0.1l20-4.7q0.2-0.1 0.4-0.2 0.2-0.1 0.3-0.3 0.2-0.2 0.3-0.4 0.1-0.2 0.1-0.4zm-321 165.8q0 0.4 0.1 0.8 0.1 0.5 0.2 0.9 0.1 0.4 0.3 0.7 0.1 0.4 0.4 0.8h-5.3l25.2-35.2 20.6 28.9h-30.7c-0.7-1.1-1.7-1.9-2.9-2.4-1.2-0.4-2.4-0.5-3.7-0.1-1.2 0.4-2.2 1.1-3 2.1-0.8 1-1.2 2.2-1.2 3.5zm465.3-10.8h7.3l-0.1 13.5-7.2-0.1zm-64 13.3l0.1-13.4h26.6v13.5zm0.1-29.8h26.7l-0.1 14.4-26.6-0.1zm63.9 0.1l7.2 0.1v14.3h-7.3zm9.3 0l34.6 0.1v14.3l-34.6-0.1zm34.5 16.5v13.4h-34.6v-13.5zm-124.4 13.2l-24.3-25.2 20-20.5 10.9 45.7-4.5-0.1v0.1zm-48.6 1.5l-27.8-39.1-0.4 0.6q-0.2-0.5-0.5-1-0.3-0.4-0.7-0.7-0.5-0.3-1-0.5-0.5-0.2-1-0.2l-272.1-0.6 23-8.8q0.3-0.1 0.5-0.3 0.2-0.2 0.4-0.4 0.1-0.3 0.1-0.6 0.1-0.3 0-0.6l115.5-43.6q0.1 0.2 0.3 0.4 0.2 0.1 0.5 0.2 0.2 0.1 0.5 0.1 0.2 0 0.4-0.1l19.2-7.3q0.3-0.1 0.4-0.2 0.2-0.2 0.4-0.4 0.1-0.2 0.1-0.4 0.1-0.3 0.1-0.5l129.7-49q0.3 0.6 0.8 1.1 0.5 0.4 1.1 0.6 0.6 0.3 1.2 0.3 0.7 0 1.3-0.2l25.1-9.5 0.4 1.5-0.4 157.6h-3.4q-1.1 0-2.1 0.1-1.1 0.1-2.1 0.3-1.1 0.2-2.1 0.5-1 0.3-2 0.7zm22.4-72.1l20.5 21.2-20.6 21.1zm0.2-65.6l9.2 38.5-9.3-9.6zm19.3 80.7l-19.4-20.1v-0.6l11.6-11.9zm1.8 55.5h-21.4l0.1-22.1zm-21.2-102.4l10.1 10.6-10.2 10.5zm-313.6 96.7l-20.7-29.1 50.4 0.1-20.9 29.1zm-27.6-29.2l-25.3 35.2-25.1-35.3zm114.6 0.3l-25.2 35.2-25.2-35.3zm57.3 0.1l-25.3 35.2-25.1-35.3zm138.9 48.4l-254-0.6q-1.2-0.9-2.5-1.3-1.3-0.4-2.8-0.5-1.4 0-2.7 0.5-1.4 0.4-2.5 1.3l-11.6-0.1 7.3-7.3 273.7 0.7q-0.6 0.6-1.2 1.3-0.6 0.7-1.1 1.4-0.6 0.7-1.1 1.5-0.4 0.7-0.8 1.5c-0.3 0.5-0.5 1.1-0.7 1.6zm-24.3-48.1l-25.3 35.2-25.1-35.4zm28.5 35.5l-50.3-0.1 25.2-35.1zm-57.3-0.2l-50.3-0.1 25.3-35.1zm-57.4-0.2l-50.3-0.1 25.3-35.1zm-57.3-0.2l-50.4-0.1 25.3-35.1zm-57.3-0.2h-15.1c0.8-1.3 1.2-2.9 0.8-4.4-0.3-1.5-1.2-2.9-2.5-3.7-1.3-0.9-2.9-1.2-4.4-0.8-1.6 0.3-2.9 1.2-3.7 2.6l-20.9-0.1 20.7-28.8zm-114.6-0.3l-50.4-0.1 25.3-35.1zm-53.8-0.3l-25.2-35.3 50.5 0.1zm-3.5 0.1l-50.3-0.1 25.2-35.1zm-53.8-0.3l-25.1-35.4 50.4 0.2zm-3.5 0.1l-50.3-0.1 25.2-35.2zm-53.8-0.2l-25.1-35.4 50.4 0.2zm-3.5 0.1l-50.3-0.1 25.2-35.2zm-53.8-0.2l-25.1-35.4 50.4 0.2zm768.3-15.2h-19.9v-14.3h0.7l7.6 6.1q0.2 0.2 0.4 0.3 0.2 0.1 0.5 0.1 0.2 0 0.5-0.1 0.2-0.1 0.4-0.2zm2.5 2l12.1 10v3.5l-34.6-0.1v-13.4zm-774.3 13.2l-50.3-0.1 25.3-35.1zm786.4-15.3h-10.6l-12.2-10.1q0.1-0.2 0.1-0.5 0-0.3 0-0.5-0.1-0.3-0.2-0.5-0.1-0.2-0.3-0.4l-3-2.3h26.2zm0 8.6l-8-6.6h8zm4.3 6.9h-2.3v-1.8zm-158.8 45.1l-4.5-0.1v2.1h4.5v14.3h-4.6v2.1h4.6l-0.1 14.3h-4.5l0.2-70.5h4.5zm72.6 32.9h-7.4v-14.3h7.5zm-9.5 0h-7.5v-14.3h7.5zm-9.5 0l-14.7-0.1 0.1-14.3h14.6zm-16.7 0h-14.6v-14.4l14.7 0.1zm-16.7-0.1h-15.2v-14.3h15.2zm0-30.7v14.3h-15.1v-14.3zm16.7 0v14.4l-14.7-0.1v-14.3zm16.8 0l-0.1 14.4-14.6-0.1v-14.3zm9.5 0v14.3h-7.5v-14.3zm9.5 0v14.3h-7.5l0.1-14.3zm9.4 14.4l-7.4-0.1v-14.3h7.5zm-0.1 16.4h-7.4v-14.3h7.5zm-226.7-112.5l-25.3 35.2-25.1-35.4zm-184.3 48.8q0 0.1-0.1 0.2-0.1 0.1-0.2 0.2-0.1 0.1-0.2 0.2 0 0.1-0.1 0.3l-11.6-0.1 0.8-0.8zm3.5 24.3h-2.9l0.1-11.5c0.8 0.8 1.8 1.4 2.9 1.7 1.1 0.4 2.3 0.6 3.5 0.5 1.1-0.1 2.3-0.4 3.3-0.9 1-0.5 2-1.2 2.8-2.1l-0.1 12.3zm-31.8-0.1h-6.8v-12.9h34.4q0.1 0.2 0.2 0.3l-0.1 12.7h-4.6l-14.3-0.1zm-20.5 0v-11.8c0.8 0.8 1.8 1.4 2.9 1.9 1.1 0.4 2.2 0.7 3.4 0.7 1.1 0 2.3-0.3 3.3-0.7 1.1-0.4 2.1-1.1 2.9-1.9v11.8h-6.3zm24.3-24.2l0.8 0.8h-11.6q0-0.1-0.1-0.2-0.1-0.1-0.2-0.2-0.1-0.1-0.2-0.2 0-0.1-0.1-0.2zm0.5-8.5h11.9l-6 6z"/>
</svg>